<svg width="20" height="20" viewBox="0 0 20 20" fill="none" xmlns="http://www.w3.org/2000/svg"><path fill-rule="evenodd" clip-rule="evenodd" d="M5 0a1 1 0 0 1 1 1v1h8V1a1 1 0 1 1 2 0v1h1a3 3 0 0 1 3 3v7a1 1 0 1 1-2 0V8H2v9a1 1 0 0 0 1 1h5a1 1 0 1 1 0 2H3a3 3 0 0 1-3-3V5a3 3 0 0 1 3-3h1V1a1 1 0 0 1 1-1M3 4a1 1 0 0 0-1 1v1h16V5a1 1 0 0 0-1-1z" fill="#C9DDFF"/><path d="M14.707 15.707a1 1 0 0 0-1.414-1.414l-2 2a1 1 0 0 0 0 1.414l2 2a1 1 0 0 0 1.414-1.414L13.414 17zm5-1.414a1 1 0 0 1 0 1.414L18.414 17l1.293 1.293a1 1 0 0 1-1.414 1.414l-2-2a1 1 0 0 1 0-1.414l2-2a1 1 0 0 1 1.414 0" fill="#C9DDFF"/></svg>
