<svg width="22" height="16" viewBox="0 0 22 16" fill="none" xmlns="http://www.w3.org/2000/svg"><path clip-rule="evenodd" d="M15.297 11.538c.08 1.832-1.398 3.382-3.302 3.46-.14.005-6.98-.008-6.98-.008-1.895.143-3.554-1.219-3.703-3.044-.012-.136-.009-7.474-.009-7.474-.084-1.834 1.393-3.387 3.299-3.468.142-.007 6.972.006 6.972.006 1.904-.142 3.568 1.23 3.716 3.064.01.132.007 7.464.007 7.464" stroke="#C9DDFF" stroke-width="2" stroke-linecap="round" stroke-linejoin="round"/><path d="m15.3 5.98 3.293-2.695c.816-.668 2.04-.086 2.039.967L20.62 11.6c-.001 1.053-1.226 1.63-2.04.962L15.3 9.868" stroke="#C9DDFF" stroke-width="2" stroke-linecap="round" stroke-linejoin="round"/></svg>
